<mxfile host="app.diagrams.net" modified="2020-10-13T07:48:25.741Z" agent="5.0 (Macintosh; Intel Mac OS X 10_15_6) AppleWebKit/537.36 (KHTML, like Gecko) Chrome/85.0.4183.121 Safari/537.36" etag="nL_8HPh7hxoDhgHfgM4J" version="13.7.9" type="github">
  <diagram id="b5TJDrXaxEZ8Jz_9KGDN" name="Page-1">
    <mxGraphModel dx="946" dy="614" grid="1" gridSize="10" guides="1" tooltips="1" connect="1" arrows="1" fold="1" page="1" pageScale="1" pageWidth="827" pageHeight="1169" math="0" shadow="0">
      <root>
        <mxCell id="0" />
        <mxCell id="1" parent="0" />
        <mxCell id="qSzLSpkRc-Tx1MiX0r5f-1" value="Member" style="shape=table;startSize=30;container=1;collapsible=1;childLayout=tableLayout;fixedRows=1;rowLines=0;fontStyle=1;align=center;resizeLast=1;" vertex="1" parent="1">
          <mxGeometry x="120" y="90" width="180" height="340" as="geometry" />
        </mxCell>
        <mxCell id="qSzLSpkRc-Tx1MiX0r5f-2" value="" style="shape=partialRectangle;collapsible=0;dropTarget=0;pointerEvents=0;fillColor=none;top=0;left=0;bottom=1;right=0;points=[[0,0.5],[1,0.5]];portConstraint=eastwest;" vertex="1" parent="qSzLSpkRc-Tx1MiX0r5f-1">
          <mxGeometry y="30" width="180" height="30" as="geometry" />
        </mxCell>
        <mxCell id="qSzLSpkRc-Tx1MiX0r5f-3" value="PK" style="shape=partialRectangle;connectable=0;fillColor=none;top=0;left=0;bottom=0;right=0;fontStyle=1;overflow=hidden;" vertex="1" parent="qSzLSpkRc-Tx1MiX0r5f-2">
          <mxGeometry width="30" height="30" as="geometry" />
        </mxCell>
        <mxCell id="qSzLSpkRc-Tx1MiX0r5f-4" value="m_id" style="shape=partialRectangle;connectable=0;fillColor=none;top=0;left=0;bottom=0;right=0;align=left;spacingLeft=6;fontStyle=5;overflow=hidden;" vertex="1" parent="qSzLSpkRc-Tx1MiX0r5f-2">
          <mxGeometry x="30" width="150" height="30" as="geometry" />
        </mxCell>
        <mxCell id="qSzLSpkRc-Tx1MiX0r5f-5" value="" style="shape=partialRectangle;collapsible=0;dropTarget=0;pointerEvents=0;fillColor=none;top=0;left=0;bottom=0;right=0;points=[[0,0.5],[1,0.5]];portConstraint=eastwest;" vertex="1" parent="qSzLSpkRc-Tx1MiX0r5f-1">
          <mxGeometry y="60" width="180" height="30" as="geometry" />
        </mxCell>
        <mxCell id="qSzLSpkRc-Tx1MiX0r5f-6" value="" style="shape=partialRectangle;connectable=0;fillColor=none;top=0;left=0;bottom=0;right=0;editable=1;overflow=hidden;" vertex="1" parent="qSzLSpkRc-Tx1MiX0r5f-5">
          <mxGeometry width="30" height="30" as="geometry" />
        </mxCell>
        <mxCell id="qSzLSpkRc-Tx1MiX0r5f-7" value="m_name" style="shape=partialRectangle;connectable=0;fillColor=none;top=0;left=0;bottom=0;right=0;align=left;spacingLeft=6;overflow=hidden;" vertex="1" parent="qSzLSpkRc-Tx1MiX0r5f-5">
          <mxGeometry x="30" width="150" height="30" as="geometry" />
        </mxCell>
        <mxCell id="qSzLSpkRc-Tx1MiX0r5f-8" value="" style="shape=partialRectangle;collapsible=0;dropTarget=0;pointerEvents=0;fillColor=none;top=0;left=0;bottom=0;right=0;points=[[0,0.5],[1,0.5]];portConstraint=eastwest;" vertex="1" parent="qSzLSpkRc-Tx1MiX0r5f-1">
          <mxGeometry y="90" width="180" height="30" as="geometry" />
        </mxCell>
        <mxCell id="qSzLSpkRc-Tx1MiX0r5f-9" value="" style="shape=partialRectangle;connectable=0;fillColor=none;top=0;left=0;bottom=0;right=0;editable=1;overflow=hidden;" vertex="1" parent="qSzLSpkRc-Tx1MiX0r5f-8">
          <mxGeometry width="30" height="30" as="geometry" />
        </mxCell>
        <mxCell id="qSzLSpkRc-Tx1MiX0r5f-10" value="m_adress" style="shape=partialRectangle;connectable=0;fillColor=none;top=0;left=0;bottom=0;right=0;align=left;spacingLeft=6;overflow=hidden;" vertex="1" parent="qSzLSpkRc-Tx1MiX0r5f-8">
          <mxGeometry x="30" width="150" height="30" as="geometry" />
        </mxCell>
        <mxCell id="qSzLSpkRc-Tx1MiX0r5f-11" value="" style="shape=partialRectangle;collapsible=0;dropTarget=0;pointerEvents=0;fillColor=none;top=0;left=0;bottom=0;right=0;points=[[0,0.5],[1,0.5]];portConstraint=eastwest;" vertex="1" parent="qSzLSpkRc-Tx1MiX0r5f-1">
          <mxGeometry y="120" width="180" height="30" as="geometry" />
        </mxCell>
        <mxCell id="qSzLSpkRc-Tx1MiX0r5f-12" value="" style="shape=partialRectangle;connectable=0;fillColor=none;top=0;left=0;bottom=0;right=0;editable=1;overflow=hidden;" vertex="1" parent="qSzLSpkRc-Tx1MiX0r5f-11">
          <mxGeometry width="30" height="30" as="geometry" />
        </mxCell>
        <mxCell id="qSzLSpkRc-Tx1MiX0r5f-13" value="m_phone" style="shape=partialRectangle;connectable=0;fillColor=none;top=0;left=0;bottom=0;right=0;align=left;spacingLeft=6;overflow=hidden;" vertex="1" parent="qSzLSpkRc-Tx1MiX0r5f-11">
          <mxGeometry x="30" width="150" height="30" as="geometry" />
        </mxCell>
        <mxCell id="qSzLSpkRc-Tx1MiX0r5f-14" value="" style="shape=partialRectangle;collapsible=0;dropTarget=0;pointerEvents=0;fillColor=none;top=0;left=0;bottom=0;right=0;points=[[0,0.5],[1,0.5]];portConstraint=eastwest;" vertex="1" parent="qSzLSpkRc-Tx1MiX0r5f-1">
          <mxGeometry y="150" width="180" height="30" as="geometry" />
        </mxCell>
        <mxCell id="qSzLSpkRc-Tx1MiX0r5f-15" value="" style="shape=partialRectangle;connectable=0;fillColor=none;top=0;left=0;bottom=0;right=0;editable=1;overflow=hidden;" vertex="1" parent="qSzLSpkRc-Tx1MiX0r5f-14">
          <mxGeometry width="30" height="30" as="geometry" />
        </mxCell>
        <mxCell id="qSzLSpkRc-Tx1MiX0r5f-16" value="m_birthday" style="shape=partialRectangle;connectable=0;fillColor=none;top=0;left=0;bottom=0;right=0;align=left;spacingLeft=6;overflow=hidden;" vertex="1" parent="qSzLSpkRc-Tx1MiX0r5f-14">
          <mxGeometry x="30" width="150" height="30" as="geometry" />
        </mxCell>
        <mxCell id="qSzLSpkRc-Tx1MiX0r5f-17" value="" style="shape=partialRectangle;collapsible=0;dropTarget=0;pointerEvents=0;fillColor=none;top=0;left=0;bottom=0;right=0;points=[[0,0.5],[1,0.5]];portConstraint=eastwest;" vertex="1" parent="qSzLSpkRc-Tx1MiX0r5f-1">
          <mxGeometry y="180" width="180" height="30" as="geometry" />
        </mxCell>
        <mxCell id="qSzLSpkRc-Tx1MiX0r5f-18" value="" style="shape=partialRectangle;connectable=0;fillColor=none;top=0;left=0;bottom=0;right=0;editable=1;overflow=hidden;" vertex="1" parent="qSzLSpkRc-Tx1MiX0r5f-17">
          <mxGeometry width="30" height="30" as="geometry" />
        </mxCell>
        <mxCell id="qSzLSpkRc-Tx1MiX0r5f-19" value="m_sex" style="shape=partialRectangle;connectable=0;fillColor=none;top=0;left=0;bottom=0;right=0;align=left;spacingLeft=6;overflow=hidden;" vertex="1" parent="qSzLSpkRc-Tx1MiX0r5f-17">
          <mxGeometry x="30" width="150" height="30" as="geometry" />
        </mxCell>
        <mxCell id="qSzLSpkRc-Tx1MiX0r5f-20" value="" style="shape=partialRectangle;collapsible=0;dropTarget=0;pointerEvents=0;fillColor=none;top=0;left=0;bottom=0;right=0;points=[[0,0.5],[1,0.5]];portConstraint=eastwest;" vertex="1" parent="qSzLSpkRc-Tx1MiX0r5f-1">
          <mxGeometry y="210" width="180" height="30" as="geometry" />
        </mxCell>
        <mxCell id="qSzLSpkRc-Tx1MiX0r5f-21" value="" style="shape=partialRectangle;connectable=0;fillColor=none;top=0;left=0;bottom=0;right=0;editable=1;overflow=hidden;" vertex="1" parent="qSzLSpkRc-Tx1MiX0r5f-20">
          <mxGeometry width="30" height="30" as="geometry" />
        </mxCell>
        <mxCell id="qSzLSpkRc-Tx1MiX0r5f-22" value="m_grade" style="shape=partialRectangle;connectable=0;fillColor=none;top=0;left=0;bottom=0;right=0;align=left;spacingLeft=6;overflow=hidden;" vertex="1" parent="qSzLSpkRc-Tx1MiX0r5f-20">
          <mxGeometry x="30" width="150" height="30" as="geometry" />
        </mxCell>
        <mxCell id="qSzLSpkRc-Tx1MiX0r5f-23" value="" style="shape=partialRectangle;collapsible=0;dropTarget=0;pointerEvents=0;fillColor=none;top=0;left=0;bottom=0;right=0;points=[[0,0.5],[1,0.5]];portConstraint=eastwest;" vertex="1" parent="qSzLSpkRc-Tx1MiX0r5f-1">
          <mxGeometry y="240" width="180" height="30" as="geometry" />
        </mxCell>
        <mxCell id="qSzLSpkRc-Tx1MiX0r5f-24" value="" style="shape=partialRectangle;connectable=0;fillColor=none;top=0;left=0;bottom=0;right=0;editable=1;overflow=hidden;" vertex="1" parent="qSzLSpkRc-Tx1MiX0r5f-23">
          <mxGeometry width="30" height="30" as="geometry" />
        </mxCell>
        <mxCell id="qSzLSpkRc-Tx1MiX0r5f-25" value="m_school)" style="shape=partialRectangle;connectable=0;fillColor=none;top=0;left=0;bottom=0;right=0;align=left;spacingLeft=6;overflow=hidden;" vertex="1" parent="qSzLSpkRc-Tx1MiX0r5f-23">
          <mxGeometry x="30" width="150" height="30" as="geometry" />
        </mxCell>
        <mxCell id="qSzLSpkRc-Tx1MiX0r5f-26" value="" style="shape=partialRectangle;collapsible=0;dropTarget=0;pointerEvents=0;fillColor=none;top=0;left=0;bottom=0;right=0;points=[[0,0.5],[1,0.5]];portConstraint=eastwest;" vertex="1" parent="qSzLSpkRc-Tx1MiX0r5f-1">
          <mxGeometry y="270" width="180" height="30" as="geometry" />
        </mxCell>
        <mxCell id="qSzLSpkRc-Tx1MiX0r5f-27" value="" style="shape=partialRectangle;connectable=0;fillColor=none;top=0;left=0;bottom=0;right=0;editable=1;overflow=hidden;" vertex="1" parent="qSzLSpkRc-Tx1MiX0r5f-26">
          <mxGeometry width="30" height="30" as="geometry" />
        </mxCell>
        <mxCell id="qSzLSpkRc-Tx1MiX0r5f-28" value="" style="shape=partialRectangle;connectable=0;fillColor=none;top=0;left=0;bottom=0;right=0;align=left;spacingLeft=6;overflow=hidden;" vertex="1" parent="qSzLSpkRc-Tx1MiX0r5f-26">
          <mxGeometry x="30" width="150" height="30" as="geometry" />
        </mxCell>
        <mxCell id="qSzLSpkRc-Tx1MiX0r5f-29" value="" style="shape=partialRectangle;collapsible=0;dropTarget=0;pointerEvents=0;fillColor=none;top=0;left=0;bottom=0;right=0;points=[[0,0.5],[1,0.5]];portConstraint=eastwest;" vertex="1" parent="qSzLSpkRc-Tx1MiX0r5f-1">
          <mxGeometry y="300" width="180" height="30" as="geometry" />
        </mxCell>
        <mxCell id="qSzLSpkRc-Tx1MiX0r5f-30" value="" style="shape=partialRectangle;connectable=0;fillColor=none;top=0;left=0;bottom=0;right=0;editable=1;overflow=hidden;" vertex="1" parent="qSzLSpkRc-Tx1MiX0r5f-29">
          <mxGeometry width="30" height="30" as="geometry" />
        </mxCell>
        <mxCell id="qSzLSpkRc-Tx1MiX0r5f-31" value="" style="shape=partialRectangle;connectable=0;fillColor=none;top=0;left=0;bottom=0;right=0;align=left;spacingLeft=6;overflow=hidden;" vertex="1" parent="qSzLSpkRc-Tx1MiX0r5f-29">
          <mxGeometry x="30" width="150" height="30" as="geometry" />
        </mxCell>
        <mxCell id="qSzLSpkRc-Tx1MiX0r5f-32" value="Activities" style="shape=table;startSize=30;container=1;collapsible=1;childLayout=tableLayout;fixedRows=1;rowLines=0;fontStyle=1;align=center;resizeLast=1;" vertex="1" parent="1">
          <mxGeometry x="340" y="260" width="180" height="370" as="geometry" />
        </mxCell>
        <mxCell id="qSzLSpkRc-Tx1MiX0r5f-33" value="" style="shape=partialRectangle;collapsible=0;dropTarget=0;pointerEvents=0;fillColor=none;top=0;left=0;bottom=1;right=0;points=[[0,0.5],[1,0.5]];portConstraint=eastwest;" vertex="1" parent="qSzLSpkRc-Tx1MiX0r5f-32">
          <mxGeometry y="30" width="180" height="30" as="geometry" />
        </mxCell>
        <mxCell id="qSzLSpkRc-Tx1MiX0r5f-34" value="PK" style="shape=partialRectangle;connectable=0;fillColor=none;top=0;left=0;bottom=0;right=0;fontStyle=1;overflow=hidden;" vertex="1" parent="qSzLSpkRc-Tx1MiX0r5f-33">
          <mxGeometry width="30" height="30" as="geometry" />
        </mxCell>
        <mxCell id="qSzLSpkRc-Tx1MiX0r5f-35" value="ac_id" style="shape=partialRectangle;connectable=0;fillColor=none;top=0;left=0;bottom=0;right=0;align=left;spacingLeft=6;fontStyle=5;overflow=hidden;" vertex="1" parent="qSzLSpkRc-Tx1MiX0r5f-33">
          <mxGeometry x="30" width="150" height="30" as="geometry" />
        </mxCell>
        <mxCell id="qSzLSpkRc-Tx1MiX0r5f-36" value="" style="shape=partialRectangle;collapsible=0;dropTarget=0;pointerEvents=0;fillColor=none;top=0;left=0;bottom=0;right=0;points=[[0,0.5],[1,0.5]];portConstraint=eastwest;" vertex="1" parent="qSzLSpkRc-Tx1MiX0r5f-32">
          <mxGeometry y="60" width="180" height="30" as="geometry" />
        </mxCell>
        <mxCell id="qSzLSpkRc-Tx1MiX0r5f-37" value="" style="shape=partialRectangle;connectable=0;fillColor=none;top=0;left=0;bottom=0;right=0;editable=1;overflow=hidden;" vertex="1" parent="qSzLSpkRc-Tx1MiX0r5f-36">
          <mxGeometry width="30" height="30" as="geometry" />
        </mxCell>
        <mxCell id="qSzLSpkRc-Tx1MiX0r5f-38" value="ac_name" style="shape=partialRectangle;connectable=0;fillColor=none;top=0;left=0;bottom=0;right=0;align=left;spacingLeft=6;overflow=hidden;" vertex="1" parent="qSzLSpkRc-Tx1MiX0r5f-36">
          <mxGeometry x="30" width="150" height="30" as="geometry" />
        </mxCell>
        <mxCell id="qSzLSpkRc-Tx1MiX0r5f-39" value="" style="shape=partialRectangle;collapsible=0;dropTarget=0;pointerEvents=0;fillColor=none;top=0;left=0;bottom=0;right=0;points=[[0,0.5],[1,0.5]];portConstraint=eastwest;" vertex="1" parent="qSzLSpkRc-Tx1MiX0r5f-32">
          <mxGeometry y="90" width="180" height="30" as="geometry" />
        </mxCell>
        <mxCell id="qSzLSpkRc-Tx1MiX0r5f-40" value="" style="shape=partialRectangle;connectable=0;fillColor=none;top=0;left=0;bottom=0;right=0;editable=1;overflow=hidden;" vertex="1" parent="qSzLSpkRc-Tx1MiX0r5f-39">
          <mxGeometry width="30" height="30" as="geometry" />
        </mxCell>
        <mxCell id="qSzLSpkRc-Tx1MiX0r5f-41" value="ac_describe" style="shape=partialRectangle;connectable=0;fillColor=none;top=0;left=0;bottom=0;right=0;align=left;spacingLeft=6;overflow=hidden;" vertex="1" parent="qSzLSpkRc-Tx1MiX0r5f-39">
          <mxGeometry x="30" width="150" height="30" as="geometry" />
        </mxCell>
        <mxCell id="qSzLSpkRc-Tx1MiX0r5f-42" value="" style="shape=partialRectangle;collapsible=0;dropTarget=0;pointerEvents=0;fillColor=none;top=0;left=0;bottom=0;right=0;points=[[0,0.5],[1,0.5]];portConstraint=eastwest;" vertex="1" parent="qSzLSpkRc-Tx1MiX0r5f-32">
          <mxGeometry y="120" width="180" height="30" as="geometry" />
        </mxCell>
        <mxCell id="qSzLSpkRc-Tx1MiX0r5f-43" value="" style="shape=partialRectangle;connectable=0;fillColor=none;top=0;left=0;bottom=0;right=0;editable=1;overflow=hidden;" vertex="1" parent="qSzLSpkRc-Tx1MiX0r5f-42">
          <mxGeometry width="30" height="30" as="geometry" />
        </mxCell>
        <mxCell id="qSzLSpkRc-Tx1MiX0r5f-44" value="ac_org" style="shape=partialRectangle;connectable=0;fillColor=none;top=0;left=0;bottom=0;right=0;align=left;spacingLeft=6;overflow=hidden;" vertex="1" parent="qSzLSpkRc-Tx1MiX0r5f-42">
          <mxGeometry x="30" width="150" height="30" as="geometry" />
        </mxCell>
        <mxCell id="qSzLSpkRc-Tx1MiX0r5f-58" value="" style="shape=partialRectangle;collapsible=0;dropTarget=0;pointerEvents=0;fillColor=none;top=0;left=0;bottom=0;right=0;points=[[0,0.5],[1,0.5]];portConstraint=eastwest;" vertex="1" parent="qSzLSpkRc-Tx1MiX0r5f-32">
          <mxGeometry y="150" width="180" height="30" as="geometry" />
        </mxCell>
        <mxCell id="qSzLSpkRc-Tx1MiX0r5f-59" value="" style="shape=partialRectangle;connectable=0;fillColor=none;top=0;left=0;bottom=0;right=0;editable=1;overflow=hidden;" vertex="1" parent="qSzLSpkRc-Tx1MiX0r5f-58">
          <mxGeometry width="30" height="30" as="geometry" />
        </mxCell>
        <mxCell id="qSzLSpkRc-Tx1MiX0r5f-60" value="ac_url" style="shape=partialRectangle;connectable=0;fillColor=none;top=0;left=0;bottom=0;right=0;align=left;spacingLeft=6;overflow=hidden;" vertex="1" parent="qSzLSpkRc-Tx1MiX0r5f-58">
          <mxGeometry x="30" width="150" height="30" as="geometry" />
        </mxCell>
        <mxCell id="qSzLSpkRc-Tx1MiX0r5f-61" value="" style="shape=partialRectangle;collapsible=0;dropTarget=0;pointerEvents=0;fillColor=none;top=0;left=0;bottom=0;right=0;points=[[0,0.5],[1,0.5]];portConstraint=eastwest;" vertex="1" parent="qSzLSpkRc-Tx1MiX0r5f-32">
          <mxGeometry y="180" width="180" height="30" as="geometry" />
        </mxCell>
        <mxCell id="qSzLSpkRc-Tx1MiX0r5f-62" value="" style="shape=partialRectangle;connectable=0;fillColor=none;top=0;left=0;bottom=0;right=0;editable=1;overflow=hidden;" vertex="1" parent="qSzLSpkRc-Tx1MiX0r5f-61">
          <mxGeometry width="30" height="30" as="geometry" />
        </mxCell>
        <mxCell id="qSzLSpkRc-Tx1MiX0r5f-63" value="ac_field" style="shape=partialRectangle;connectable=0;fillColor=none;top=0;left=0;bottom=0;right=0;align=left;spacingLeft=6;overflow=hidden;" vertex="1" parent="qSzLSpkRc-Tx1MiX0r5f-61">
          <mxGeometry x="30" width="150" height="30" as="geometry" />
        </mxCell>
        <mxCell id="qSzLSpkRc-Tx1MiX0r5f-64" value="" style="shape=partialRectangle;collapsible=0;dropTarget=0;pointerEvents=0;fillColor=none;top=0;left=0;bottom=0;right=0;points=[[0,0.5],[1,0.5]];portConstraint=eastwest;" vertex="1" parent="qSzLSpkRc-Tx1MiX0r5f-32">
          <mxGeometry y="210" width="180" height="30" as="geometry" />
        </mxCell>
        <mxCell id="qSzLSpkRc-Tx1MiX0r5f-65" value="" style="shape=partialRectangle;connectable=0;fillColor=none;top=0;left=0;bottom=0;right=0;editable=1;overflow=hidden;" vertex="1" parent="qSzLSpkRc-Tx1MiX0r5f-64">
          <mxGeometry width="30" height="30" as="geometry" />
        </mxCell>
        <mxCell id="qSzLSpkRc-Tx1MiX0r5f-66" value="ac_date)" style="shape=partialRectangle;connectable=0;fillColor=none;top=0;left=0;bottom=0;right=0;align=left;spacingLeft=6;overflow=hidden;" vertex="1" parent="qSzLSpkRc-Tx1MiX0r5f-64">
          <mxGeometry x="30" width="150" height="30" as="geometry" />
        </mxCell>
        <mxCell id="qSzLSpkRc-Tx1MiX0r5f-67" value="" style="shape=partialRectangle;collapsible=0;dropTarget=0;pointerEvents=0;fillColor=none;top=0;left=0;bottom=0;right=0;points=[[0,0.5],[1,0.5]];portConstraint=eastwest;" vertex="1" parent="qSzLSpkRc-Tx1MiX0r5f-32">
          <mxGeometry y="240" width="180" height="30" as="geometry" />
        </mxCell>
        <mxCell id="qSzLSpkRc-Tx1MiX0r5f-68" value="" style="shape=partialRectangle;connectable=0;fillColor=none;top=0;left=0;bottom=0;right=0;editable=1;overflow=hidden;" vertex="1" parent="qSzLSpkRc-Tx1MiX0r5f-67">
          <mxGeometry width="30" height="30" as="geometry" />
        </mxCell>
        <mxCell id="qSzLSpkRc-Tx1MiX0r5f-69" value="ac_adress)" style="shape=partialRectangle;connectable=0;fillColor=none;top=0;left=0;bottom=0;right=0;align=left;spacingLeft=6;overflow=hidden;" vertex="1" parent="qSzLSpkRc-Tx1MiX0r5f-67">
          <mxGeometry x="30" width="150" height="30" as="geometry" />
        </mxCell>
        <mxCell id="qSzLSpkRc-Tx1MiX0r5f-70" value="" style="shape=partialRectangle;collapsible=0;dropTarget=0;pointerEvents=0;fillColor=none;top=0;left=0;bottom=0;right=0;points=[[0,0.5],[1,0.5]];portConstraint=eastwest;" vertex="1" parent="qSzLSpkRc-Tx1MiX0r5f-32">
          <mxGeometry y="270" width="180" height="30" as="geometry" />
        </mxCell>
        <mxCell id="qSzLSpkRc-Tx1MiX0r5f-71" value="" style="shape=partialRectangle;connectable=0;fillColor=none;top=0;left=0;bottom=0;right=0;editable=1;overflow=hidden;" vertex="1" parent="qSzLSpkRc-Tx1MiX0r5f-70">
          <mxGeometry width="30" height="30" as="geometry" />
        </mxCell>
        <mxCell id="qSzLSpkRc-Tx1MiX0r5f-72" value="ac_price)" style="shape=partialRectangle;connectable=0;fillColor=none;top=0;left=0;bottom=0;right=0;align=left;spacingLeft=6;overflow=hidden;" vertex="1" parent="qSzLSpkRc-Tx1MiX0r5f-70">
          <mxGeometry x="30" width="150" height="30" as="geometry" />
        </mxCell>
        <mxCell id="qSzLSpkRc-Tx1MiX0r5f-73" value="" style="shape=partialRectangle;collapsible=0;dropTarget=0;pointerEvents=0;fillColor=none;top=0;left=0;bottom=0;right=0;points=[[0,0.5],[1,0.5]];portConstraint=eastwest;" vertex="1" parent="qSzLSpkRc-Tx1MiX0r5f-32">
          <mxGeometry y="300" width="180" height="30" as="geometry" />
        </mxCell>
        <mxCell id="qSzLSpkRc-Tx1MiX0r5f-74" value="" style="shape=partialRectangle;connectable=0;fillColor=none;top=0;left=0;bottom=0;right=0;editable=1;overflow=hidden;" vertex="1" parent="qSzLSpkRc-Tx1MiX0r5f-73">
          <mxGeometry width="30" height="30" as="geometry" />
        </mxCell>
        <mxCell id="qSzLSpkRc-Tx1MiX0r5f-75" value="Row 3" style="shape=partialRectangle;connectable=0;fillColor=none;top=0;left=0;bottom=0;right=0;align=left;spacingLeft=6;overflow=hidden;" vertex="1" parent="qSzLSpkRc-Tx1MiX0r5f-73">
          <mxGeometry x="30" width="150" height="30" as="geometry" />
        </mxCell>
        <mxCell id="qSzLSpkRc-Tx1MiX0r5f-76" value="" style="shape=partialRectangle;collapsible=0;dropTarget=0;pointerEvents=0;fillColor=none;top=0;left=0;bottom=0;right=0;points=[[0,0.5],[1,0.5]];portConstraint=eastwest;" vertex="1" parent="qSzLSpkRc-Tx1MiX0r5f-32">
          <mxGeometry y="330" width="180" height="30" as="geometry" />
        </mxCell>
        <mxCell id="qSzLSpkRc-Tx1MiX0r5f-77" value="" style="shape=partialRectangle;connectable=0;fillColor=none;top=0;left=0;bottom=0;right=0;editable=1;overflow=hidden;" vertex="1" parent="qSzLSpkRc-Tx1MiX0r5f-76">
          <mxGeometry width="30" height="30" as="geometry" />
        </mxCell>
        <mxCell id="qSzLSpkRc-Tx1MiX0r5f-78" value="Row 3" style="shape=partialRectangle;connectable=0;fillColor=none;top=0;left=0;bottom=0;right=0;align=left;spacingLeft=6;overflow=hidden;" vertex="1" parent="qSzLSpkRc-Tx1MiX0r5f-76">
          <mxGeometry x="30" width="150" height="30" as="geometry" />
        </mxCell>
        <mxCell id="qSzLSpkRc-Tx1MiX0r5f-92" value="Order" style="shape=table;startSize=30;container=1;collapsible=1;childLayout=tableLayout;fixedRows=1;rowLines=0;fontStyle=1;align=center;resizeLast=1;" vertex="1" parent="1">
          <mxGeometry x="540" y="80" width="180" height="160" as="geometry" />
        </mxCell>
        <mxCell id="qSzLSpkRc-Tx1MiX0r5f-93" value="" style="shape=partialRectangle;collapsible=0;dropTarget=0;pointerEvents=0;fillColor=none;top=0;left=0;bottom=1;right=0;points=[[0,0.5],[1,0.5]];portConstraint=eastwest;" vertex="1" parent="qSzLSpkRc-Tx1MiX0r5f-92">
          <mxGeometry y="30" width="180" height="30" as="geometry" />
        </mxCell>
        <mxCell id="qSzLSpkRc-Tx1MiX0r5f-94" value="PK" style="shape=partialRectangle;connectable=0;fillColor=none;top=0;left=0;bottom=0;right=0;fontStyle=1;overflow=hidden;" vertex="1" parent="qSzLSpkRc-Tx1MiX0r5f-93">
          <mxGeometry width="30" height="30" as="geometry" />
        </mxCell>
        <mxCell id="qSzLSpkRc-Tx1MiX0r5f-95" value="o_id" style="shape=partialRectangle;connectable=0;fillColor=none;top=0;left=0;bottom=0;right=0;align=left;spacingLeft=6;fontStyle=5;overflow=hidden;" vertex="1" parent="qSzLSpkRc-Tx1MiX0r5f-93">
          <mxGeometry x="30" width="150" height="30" as="geometry" />
        </mxCell>
        <mxCell id="qSzLSpkRc-Tx1MiX0r5f-96" value="" style="shape=partialRectangle;collapsible=0;dropTarget=0;pointerEvents=0;fillColor=none;top=0;left=0;bottom=0;right=0;points=[[0,0.5],[1,0.5]];portConstraint=eastwest;" vertex="1" parent="qSzLSpkRc-Tx1MiX0r5f-92">
          <mxGeometry y="60" width="180" height="30" as="geometry" />
        </mxCell>
        <mxCell id="qSzLSpkRc-Tx1MiX0r5f-97" value="FK" style="shape=partialRectangle;connectable=0;fillColor=none;top=0;left=0;bottom=0;right=0;editable=1;overflow=hidden;" vertex="1" parent="qSzLSpkRc-Tx1MiX0r5f-96">
          <mxGeometry width="30" height="30" as="geometry" />
        </mxCell>
        <mxCell id="qSzLSpkRc-Tx1MiX0r5f-98" value="ac_id" style="shape=partialRectangle;connectable=0;fillColor=none;top=0;left=0;bottom=0;right=0;align=left;spacingLeft=6;overflow=hidden;" vertex="1" parent="qSzLSpkRc-Tx1MiX0r5f-96">
          <mxGeometry x="30" width="150" height="30" as="geometry" />
        </mxCell>
        <mxCell id="qSzLSpkRc-Tx1MiX0r5f-99" value="" style="shape=partialRectangle;collapsible=0;dropTarget=0;pointerEvents=0;fillColor=none;top=0;left=0;bottom=0;right=0;points=[[0,0.5],[1,0.5]];portConstraint=eastwest;" vertex="1" parent="qSzLSpkRc-Tx1MiX0r5f-92">
          <mxGeometry y="90" width="180" height="30" as="geometry" />
        </mxCell>
        <mxCell id="qSzLSpkRc-Tx1MiX0r5f-100" value="FK" style="shape=partialRectangle;connectable=0;fillColor=none;top=0;left=0;bottom=0;right=0;editable=1;overflow=hidden;" vertex="1" parent="qSzLSpkRc-Tx1MiX0r5f-99">
          <mxGeometry width="30" height="30" as="geometry" />
        </mxCell>
        <mxCell id="qSzLSpkRc-Tx1MiX0r5f-101" value="member_id" style="shape=partialRectangle;connectable=0;fillColor=none;top=0;left=0;bottom=0;right=0;align=left;spacingLeft=6;overflow=hidden;" vertex="1" parent="qSzLSpkRc-Tx1MiX0r5f-99">
          <mxGeometry x="30" width="150" height="30" as="geometry" />
        </mxCell>
        <mxCell id="qSzLSpkRc-Tx1MiX0r5f-102" value="" style="shape=partialRectangle;collapsible=0;dropTarget=0;pointerEvents=0;fillColor=none;top=0;left=0;bottom=0;right=0;points=[[0,0.5],[1,0.5]];portConstraint=eastwest;" vertex="1" parent="qSzLSpkRc-Tx1MiX0r5f-92">
          <mxGeometry y="120" width="180" height="30" as="geometry" />
        </mxCell>
        <mxCell id="qSzLSpkRc-Tx1MiX0r5f-103" value="" style="shape=partialRectangle;connectable=0;fillColor=none;top=0;left=0;bottom=0;right=0;editable=1;overflow=hidden;" vertex="1" parent="qSzLSpkRc-Tx1MiX0r5f-102">
          <mxGeometry width="30" height="30" as="geometry" />
        </mxCell>
        <mxCell id="qSzLSpkRc-Tx1MiX0r5f-104" value="o_date" style="shape=partialRectangle;connectable=0;fillColor=none;top=0;left=0;bottom=0;right=0;align=left;spacingLeft=6;overflow=hidden;" vertex="1" parent="qSzLSpkRc-Tx1MiX0r5f-102">
          <mxGeometry x="30" width="150" height="30" as="geometry" />
        </mxCell>
      </root>
    </mxGraphModel>
  </diagram>
</mxfile>
